# xmcd
#
# Track frame offsets:
#	150
#	22245
#	43288
#	63777
#	79558
#	94354
#	108156
#	134136
#	156279
#	186262
#	203986
#	216937
#
# Disc length: 3302 seconds
#
# Revision: 1
# Processed by: cddbd v1.5.1PL0 Copyright (c) Steve Scherf et al.
# Submitted via: EasyCDDAExtractor 5.0.6
#
DISCID=b30ce40c
DTITLE=Bob Brozman - Resonance
DYEAR=1900
DGENRE=Blues
TTITLE0=Devil Blues
TTITLE1=Wai Ala'e Waltz
TTITLE2=Place D'youville
TTITLE3=Ji Dai Funk
TTITLE4=Dakon
TTITLE5=Menacing Ska Waltz
TTITLE6=Kukuna Oka La
TTITLE7=O Le La O
TTITLE8=Calcutta Blues
TTITLE9=Ha Ha No Uta
TTITLE10=Z.B.P. Blues
TTITLE11=Nkaminyo Yelema
EXTD=
EXTT0=
EXTT1=
EXTT2=
EXTT3=
EXTT4=
EXTT5=
EXTT6=
EXTT7=
EXTT8=
EXTT9=
EXTT10=
EXTT11=
PLAYORDER=
